<?xml version="1.0" encoding="UTF-8"?>
<svg width="24" height="24" version="1.1" viewBox="0 0 24 24" xmlns="http://www.w3.org/2000/svg">
 <path class="UnoptimicedTransforms" d="m12 0c-6.627 0-12 5.373-12 12s5.373 12 12 12 12-5.373 12-12-5.373-12-12-12z" fill="#fff"/>
 <path class="UnoptimicedTransforms" d="m12 0c-6.627 0-12 5.373-12 12s5.373 12 12 12 12-5.373 12-12-5.373-12-12-12zm0 22c-3.123 0-5.914-1.441-7.749-3.69 0.259-0.588 0.783-0.995 1.867-1.246 2.244-0.518 4.459-0.981 3.393-2.945-3.155-5.82-0.899-9.119 2.489-9.119 3.322 0 5.634 3.177 2.489 9.119-1.035 1.952 1.1 2.416 3.393 2.945 1.082 0.25 1.61 0.655 1.871 1.241-1.836 2.253-4.628 3.695-7.753 3.695z"/>
 <path d="m12 0c-6.627 0-12 5.373-12 12 0 6.627 5.373 12 12 12 6.627 0 12-5.373 12-12 0-6.627-5.373-12-12-12zm0 5c3.322 0 5.6333 3.1771 2.4883 9.1191-1.035 1.952 1.1015 2.4163 3.3945 2.9453 1.082 0.25 1.6101 0.65424 1.8711 1.2402-1.836 2.253-4.6289 3.6953-7.7539 3.6953-3.123 0-5.913-1.4405-7.748-3.6895 0.259-0.588 0.78124-0.99509 1.8652-1.2461 2.244-0.518 4.4605-0.98131 3.3945-2.9453-3.155-5.82-0.89972-9.1191 2.4883-9.1191z"/>
</svg>
